<svg xmlns="http://www.w3.org/2000/svg" width="1920" height="1080" viewBox="0 0 1920 1080">
  <title>LoginPageBackground</title>
  <g id="Warstwa_2" data-name="Warstwa 2">
    <g id="Warstwa_17" data-name="Warstwa 17">
      <g>
        <polygon points="1203 476 971 737 1125.54 1080 1920 1080 1920 540 1418 368 1203 476" style="fill: #4d56c1"/>
        <path d="M935,175l54,301,161,53c128,45.55,229.12,15.72,302-93-10.75,74.53,25.38,136.93,113,186,151,74.22,266.6,62.24,355-16V245.19L1559,118Z" style="fill: #2c48af"/>
        <path d="M783.11,0,892,252c160-35.3,311.06-27.95,451.63,30.07,29,12,60.81,15.81,91.65,10.08,42.32-7.86,77.83-28.48,106.15-62.56,27-32.55,67.14-51.6,109.44-50.47,98.49,2.63,187,46.17,269.13,115.88V0Z" style="fill: #4d56c1"/>
        <path d="M806,0C919.07,54.52,960.6,120.63,908,202c102.1,51.14,164.77,121.49,184,213,96.93,112.6,121.66,218.54,22,313,123.48,103.77,163.89,221.84,134,352H713L343,454,368.12,0Z" style="fill: #476fc9"/>
        <path d="M0,0H491c-63.38,57.79-90.08,112.51-56.85,162.2a94.07,94.07,0,0,1,11.17,82.63c-57.69,168.9,65.38,221.63,281.83,214.35A132.23,132.23,0,0,1,787,471.29c86.93,40.14,104.08,96.19,76.74,162.37-10.8,26.13-34.2,44.89-61.9,50.58-150,30.8-187.94,121.39-127.71,264.4a172.2,172.2,0,0,0,36.29,53.84c22.55,22.91,26.71,48.3,2.57,77.52H0Z" style="fill: #2c48af"/>
        <path d="M1387,1080c-7.45-78.5,96.83-124.43,170-132,43.5-45.22,89-54.08,138,0-9.37-57.53,36.46-91.13,107-114,59.52,5.28,106.66-5.75,118-64v310Z" style="fill: #476fc9"/>
      </g>
    </g>
  </g>
</svg>
