<svg xmlns="http://www.w3.org/2000/svg" width="1920" height="1080" viewBox="0 0 1920 1080">
  <title>Zasób 2</title>
  <g id="Warstwa_2" data-name="Warstwa 2">
    <g id="Warstwa_1-2" data-name="Warstwa 1">
      <polygon points="1920 0 1920 1080 1664 1080 1651 154 1735.55 0.5 1920 0" style="fill: #3776af"/>
      <path d="M1597,0,1486.62,185.33,1504,792l-17.37,288H1698c60.63-30,64-91.68,32-173,40-86.67,26.35-159.28-44-217,45.21-90.86,76.81-175.26,67-240-.78-75.86-20.82-138.94-65-186,89.55-65.17,126.87-155.6,127-264H1597Z" style="fill: #383ead"/>
      <path d="M1514.35,205.43c64.12,67.1,88.28,158.59,81.39,269a69.78,69.78,0,0,1-23,47.33c-49.88,45.19-61.17,110.4-58.2,183a68.57,68.57,0,0,0,15.11,40.08c34.07,42.53,51.86,90,44.72,144.92a70.23,70.23,0,0,0,2.11,28.44c21.15,74,1.73,127.15-64.78,156a69.09,69.09,0,0,1-27.52,5.72H1131.56a68.94,68.94,0,0,1-68.72-74.39l51.7-652A68.94,68.94,0,0,1,1159,294.57l281.28-106A68.91,68.91,0,0,1,1514.35,205.43Z" style="fill: #3659b2"/>
      <path d="M1178,317c29.42,88.62,25,156.63-41,187,61.34,45.13,87.49,109.91,88,189-13,77.42-39.88,136.43-95,158,13.65,13.14,26.07,26.57,36.28,40.53,29.67,40.57,21.5,98.21-19,128-17.54,12.89-18,32.07,4.71,60.48H604.53L664,412,865,292l253-43Z" style="fill: #3776af"/>
      <path d="M652,300l65.57,130.86C777.17,497.57,844,486.21,916,418c29.38-70.32,73.62-116.77,146-118,44.32,57.37,94.64,98.27,172,65,220.47.58,258.27-89.3,252-201L1142,93,836,106Z" style="fill: #383ead"/>
      <path d="M625,298c106.21,29.23,123.88,87.57,71,179,63.41,57.15,112,108.51,16,182,19.56,16.61,37,33.3,51.73,50.08,47.94,54.75,42.91,138.41-11.77,186.44-60.76,53.37-60.21,115.57-13,184.48H432.75L288,746l72-289L528,278Z" style="fill: #3659b2"/>
      <path d="M511,293c-18.86,114.54-60.26,204.66-155,237,28.6,23.45,45.26,49.6,51.65,78.08,7.35,32.81-1,67-21.3,93.84C337.36,766.53,341,829.94,404,892c65.56,45.25,121.31,94.55,70,188H0V402.23L322,174l150,63Z" style="fill: #383ead"/>
      <path d="M371.52.5V209.13Q410.57,318.59,579,327c17,.09,33.26-.33,48.91-1.39,86.17-5.84,159.61-62.78,190.28-143.52C830,151,857,134.92,897.21,132c39.84-2.94,78.84,11.48,108.43,38.32,55.8,50.61,113.38,44.1,172.73-2.68a59.24,59.24,0,0,1,69.07-3.15C1292.72,193.89,1361.26,199,1450,183c50.26,6.8,90.67.25,109.71-35.34,8.84-16.53,21.8-30.61,38.17-39.76,45-25.16,37.34-63.08,1.12-107.9Z" style="fill: #3776af"/>
      <path d="M.5,410.5c81.58,39.32,155.12,44.85,215.53-4.89a113.43,113.43,0,0,0,39.39-67.76c9.32-52.39,38.89-80.21,76.39-98.42,23.37-11.35,42.91-29.5,54.81-52.6,25.23-49,20.65-114.3,3.88-186.33H.5Z" style="fill: #3659b2"/>
    </g>
  </g>
</svg>
