<svg xmlns="http://www.w3.org/2000/svg" width="522" height="546" viewBox="0 0 522 546">
  <title>Zasób 5</title>
  <g id="Warstwa_2" data-name="Warstwa 2">
    <g id="Warstwa_16" data-name="Warstwa 16">
      <rect width="522" height="546" style="fill: #fff"/>
    </g>
    <g id="Warstwa_4" data-name="Warstwa 4">
      <polygon points="345.76 314 313 466 319 466 357.66 314 345.76 314" style="fill: #355060"/>
      <polygon points="410.1 314 446 466 450 466 422.29 314 410.1 314" style="fill: #355060"/>
      <rect x="155" y="309" width="278" height="5" style="fill: #d4edff"/>
      <polygon points="230.1 314 262 466 257 466 217.91 314 230.1 314" style="fill: #355060"/>
      <polygon points="178.51 314 140 466 135 466 167.17 314 178.51 314" style="fill: #355060"/>
    </g>
    <g id="Warstwa_2-2" data-name="Warstwa 2">
      <g>
        <path d="M288.44,309h6.19a14.27,14.27,0,0,0,3.29-3.53,8.45,8.45,0,0,0,1.35-4.62V290.32h-4.64Z" style="fill: #24364c"/>
        <path d="M294.63,290.32v12.8a3,3,0,0,1-.71,1.9,16.22,16.22,0,0,1-5.48,4H248.2v-6.23h13.93V290.32Z" style="fill: #2a3e5b"/>
        <g>
          <path d="M366.47,290.32h1a4.78,4.78,0,0,0,4.48-5V187.66a10,10,0,0,0-3-7.27L364.26,177Z" style="fill: #24364c"/>
          <path d="M160,279.11v8.8a2.75,2.75,0,0,0,3,2.41H367.36V279.11Z" style="fill: #efefef"/>
          <ellipse cx="265.23" cy="285.34" rx="3.09" ry="2.49" style="fill: #3e3a91"/>
          <path d="M163.72,177H363.64c2.05,0,3.72,1.34,3.72,3V281.6H160V180C160,178.34,161.67,177,163.72,177Z" style="fill: #2a3e5b"/>
          <rect x="164.64" y="181.98" width="198.07" height="94.64" style="fill: #608fe2"/>
        </g>
      </g>
    </g>
    <g id="Warstwa_14" data-name="Warstwa 14">
      <rect x="181" y="187" width="172" height="84" style="fill: #fff"/>
      <rect x="349" y="187" width="4" height="84" style="fill: #7ba8c6"/>
      <rect x="181" y="187" width="172" height="9" transform="translate(534 383) rotate(180)" style="fill: #7ba8c6"/>
      <rect x="184" y="190" width="164" height="3" style="fill: #fff"/>
      <line x1="188" y1="191.5" x2="344" y2="191.5" style="fill: none;stroke: #000;stroke-miterlimit: 10;stroke-width: 0.5px"/>
      <rect x="350" y="196" width="2" height="75" style="fill: #c7e8ff"/>
      <rect x="350" y="225" width="2" height="11" style="fill: #fff"/>
      <rect x="217" y="202" width="110" height="64" rx="2.28" style="fill: #e3f5ff"/>
      <rect x="234.87" y="234" width="77" height="1" style="fill: #b9bcff"/>
      <rect x="234.87" y="237.43" width="77" height="1" style="fill: #b9bcff"/>
      <rect x="234.87" y="240.86" width="77" height="1" style="fill: #b9bcff"/>
      <rect x="234.87" y="244.29" width="77" height="1" style="fill: #b9bcff"/>
      <rect x="234.87" y="251.14" width="77" height="1" style="fill: #b9bcff"/>
      <rect x="234.87" y="247.71" width="77" height="1" style="fill: #b9bcff"/>
      <rect x="234.87" y="258" width="77" height="1" style="fill: #b9bcff"/>
      <rect x="234.87" y="254.57" width="77" height="1" style="fill: #b9bcff"/>
      <rect x="229" y="208" width="88" height="22" style="fill: #b9bcff;opacity: 0.6000000000000001"/>
    </g>
    <g id="Warstwa_8" data-name="Warstwa 8">
      <path d="M265,54,228.44,76C215,86.86,203.48,97.81,198,109h4c4.62-10.8,16.42-20.57,28.47-29.86l36.53-22Z" style="fill: #2a3e5b"/>
      <polygon points="266 55 264 117 270 117 273 55 266 55" style="fill: #2a3e5b"/>
      <path d="M270,55c18,16.5,39.71,36.39,51,60h3c-12.26-24.87-29.86-46.3-48-61l-.06-.1" style="fill: #2a3e5b"/>
      <ellipse cx="196.67" cy="121.08" rx="22.33" ry="21.92" style="fill: #2a3e5b"/>
    </g>
    <g id="Warstwa_11" data-name="Warstwa 11">
      <path d="M420,211.42l6.52-1.81c1.36-4,3.59-6.72,7-7.61a27.28,27.28,0,0,1,16.2.67l9.87,3.28a31.52,31.52,0,0,1-8.59,8c-5.19,3.43-10.59,3.35-16.1,1.41a24.61,24.61,0,0,1-6-4,51.29,51.29,0,0,1,12.33-3,32.17,32.17,0,0,0-13,1.92l-7.52,2.89Z" style="fill: #2a3e5b"/>
      <path d="M424.14,167.41l5-2.87c.26-3.58,1.52-6.27,4.12-7.72a23,23,0,0,1,13.41-2.89l8.79.59a26.87,26.87,0,0,1-5.34,8.39c-3.52,3.91-8,5-12.9,4.57a20.74,20.74,0,0,1-5.8-2,43.62,43.62,0,0,1,9.47-5.09,27.56,27.56,0,0,0-10.27,4.34l-5.54,4Z" style="fill: #2a3e5b"/>
      <path d="M379.87,68.48,383,66.25c-.06-2.4.6-4.26,2.24-5.4A15.28,15.28,0,0,1,394,58.06l5.88-.18a18,18,0,0,1-3,5.92c-2.08,2.83-5,3.84-8.27,3.88a14.26,14.26,0,0,1-4-1,29.41,29.41,0,0,1,6-4A18.21,18.21,0,0,0,384,66.28l-3.43,3Z" style="fill: #2a3e5b"/>
      <path d="M308.39,53.86l3-2.85c-.43-2.54,0-4.62,1.54-6.09a16.62,16.62,0,0,1,8.86-4.31L328,39.52a19.12,19.12,0,0,1-2.28,6.76c-1.78,3.33-4.69,4.84-8.2,5.4a15.23,15.23,0,0,1-4.39-.4,31.12,31.12,0,0,1,5.73-5.17,19.57,19.57,0,0,0-6.41,4.78l-3.19,3.72Z" style="fill: #2a3e5b"/>
      <path d="M414.25,107.51l3.59-3.36c-.48-3.05,0-5.53,1.94-7.26a19.75,19.75,0,0,1,10.65-5l7.46-1.21a22.92,22.92,0,0,1-2.83,8c-2.19,4-5.69,5.73-9.9,6.33a17.81,17.81,0,0,1-5.24-.54,37.06,37.06,0,0,1,6.93-6.1,23.5,23.5,0,0,0-7.74,5.62l-3.87,4.4Z" style="fill: #2a3e5b"/>
      <path d="M414.74,191.68l-4.83-1.34c-1-3-2.66-5-5.19-5.66a20.21,20.21,0,0,0-12,.51l-7.32,2.43a23.44,23.44,0,0,0,6.37,5.94c3.85,2.54,7.86,2.49,11.95,1.05a18.51,18.51,0,0,0,4.48-3,38.67,38.67,0,0,0-9.15-2.24,24,24,0,0,1,9.66,1.43l5.58,2.15Z" style="fill: #2a3e5b"/>
      <path d="M412.78,132.11l-4.07-.05c-1.46-2.13-3.2-3.35-5.32-3.35a16.1,16.1,0,0,0-9.24,2.87L389,135a19.63,19.63,0,0,0,6.3,3.33c3.57,1.2,6.68.32,9.54-1.65a14.6,14.6,0,0,0,2.82-3.25,30.62,30.62,0,0,0-7.63.14,19.14,19.14,0,0,1,7.84-.88l4.83.53Z" style="fill: #2a3e5b"/>
      <path d="M385.13,78.94l-2.51,2c-2-.55-3.67-.41-5,.67a12.82,12.82,0,0,0-4.18,6.48l-1.4,4.73a15.5,15.5,0,0,0,5.55-1.19,8.13,8.13,0,0,0,5-5.88,11.44,11.44,0,0,0,.07-3.43,24.73,24.73,0,0,0-4.6,4,15.41,15.41,0,0,1,4.35-4.55l3.22-2.14Z" style="fill: #2a3e5b"/>
      <path d="M313.66,53.63l-.79,2.28A3.83,3.83,0,0,0,310,58.27a9.56,9.56,0,0,0-.12,5.74l1,3.54a11.61,11.61,0,0,0,3.06-2.91,6.1,6.1,0,0,0,.86-5.68,8.63,8.63,0,0,0-1.3-2.2,18.33,18.33,0,0,0-1.36,4.32,11.34,11.34,0,0,1,1-4.58l1.2-2.62Z" style="fill: #2a3e5b"/>
    </g>
    <g id="Warstwa_9" data-name="Warstwa 9">
      <g>
        <rect x="181.4" y="110.55" width="30.55" height="21.04" style="fill: #2a3e5b;stroke: #fff;stroke-miterlimit: 10"/>
        <polygon points="182.59 131.32 196.67 121.08 211.01 131.32 182.59 131.32" style="fill: none;stroke: #fff;stroke-miterlimit: 10;stroke-width: 0.75px"/>
        <polygon points="182.59 110.59 196.67 124.12 211.01 110.59 182.59 110.59" style="fill: #2a3e5b;stroke: #fff;stroke-miterlimit: 10"/>
      </g>
      <circle cx="263.92" cy="142.66" r="27.5" style="fill: #2a3e5b"/>
      <g>
        <circle cx="263.92" cy="131.99" r="6.67" style="fill: #fff"/>
        <path d="M260.81,140.44c-6.05,4.61-8,11.74-8.89,19.55h24c-1.22-7.83-3.27-14.92-8-19.55Z" style="fill: #fff"/>
      </g>
      <circle cx="323.21" cy="118.95" r="14.79" style="fill: #2a3e5b"/>
      <polyline points="316.67 120.63 321.04 124.12 331.53 113.63" style="fill: none;stroke: #fff;stroke-miterlimit: 10;stroke-width: 2px"/>
    </g>
    <g id="Warstwa_6" data-name="Warstwa 6">
      <path d="M414,274l12-107-10-60L381,67s-50-16-50-16l-38-2-28,5v2a260.77,260.77,0,0,1,66,0l46,17,32,37,7,57L397,274Z" style="fill: #2a3e5b"/>
    </g>
    <g id="Warstwa_5" data-name="Warstwa 5">
      <polygon points="394 309 417 309 422 274 389 274 394 309" style="fill: #a9cbdb"/>
    </g>
    <g id="Warstwa_7" data-name="Warstwa 7">
      <g>
        <polygon points="171 388 158 454 174 456 198 386 171 388" style="fill: #21365b"/>
        <path d="M226,453q-10,8.52-4,17l26-1,14-4c-4.72-4.67-15.72-9.67-23-11Z" style="fill: #331a0a"/>
        <path d="M158,454q-10,8.52-4,17l26-1,10-5c-4.72-4.67-10.72-8.67-18-10Z" style="fill: #331a0a"/>
        <polygon points="216 377 233 380 225 454 231 454 244 380 212 371 216 377" style="fill: #21365b"/>
        <path d="M198,340c23.8,3,44.82,7.17,57,15q9,6.94,6,18c-5.93,23.19-12.28,56.32-22,81h-8l10.58-69.21a5.84,5.84,0,0,0-5.52-7L214,374l-22-31Z" style="fill: #25396b"/>
        <path d="M253,296l14-1c3.9,3.19,6.17,8.77,8,15h-2l-6-6-4,4-7-1Z" style="fill: #fcb19a"/>
        <g>
          <path d="M121,318h63l9,29,5-7-5-15V292l19,26h16l30-10c.32-2.89,1.17-5.37,0-7l-39,3-26-32-33,4-31,6-11,24Z" style="fill: #091c38"/>
          <path d="M192,254c-18.2-3.32-34.25-3.4-48,0-15.24,10.74-24.44,27.13-31,46-2.66,9.92-.35,16.18,8,18,2.1-5.19,2.57-10.92,2-17a42.83,42.83,0,0,1,8-17c-2,7.17-1.79,17.23-1,28l42-6,6-18c1.79-5.43,5.23-8.26,10-9,5.41-2.67,10.71,5.47,16,15,4.45,7,9.07,12.67,14,16,14.32,3.34,28.26.05,40-9a9,9,0,0,0-7-6H222C208.21,271,196.85,253.65,192,254Z" style="fill: #091c3d"/>
          <path d="M161,241l-2-7c-4.22-3.85-6.77-9.28-9-15-1.66-5.71.29-10.65,5-15,4.18-4.44,8.49-7.49,13-8,0-.65,26,3,27,4,.69.72,8,0,8,0-.33,5.69-2.07,9.6-5,12H184.75a3,3,0,0,0-3,2.74L181,225l-9,15C167.39,242.62,163.6,243.26,161,241Z"/>
          <path d="M176,253c.75-4.82,1.94-8.78,4-11a18.13,18.13,0,0,0,9,5c2,.16,3.26-1.37,4-4l2-8,2,1v-5l-1-2v-7l2-3v-7H183.46a1.62,1.62,0,0,0-1.61,1.46L181,222c-3.53-3.29-6.12-3.72-7,1-.89,3-.28,6,1,9-1.7,3.78-3.86,6.73-7,8a9.94,9.94,0,0,1-7,1l-5,13Z" style="fill: #fcb19a"/>
          <polygon points="127 388 114 480 119 480 135 388 127 388" style="fill: #18233d"/>
          <polygon points="163 388 147 470 153 470 171 388 163 388" style="fill: #18233d"/>
          <polygon points="178 388 201 480 205 480 188 388 178 388" style="fill: #18233d"/>
          <polygon points="198 388 229 470 233 470 205 386 198 388" style="fill: #18233d"/>
          <path d="M121,272.26V382.93c0,2.8,1.55,5.07,3.46,5.07H205l-21-43.95V262H121Z" style="fill: #222d4c"/>
          <polygon points="184 262 186 262 186 295.7 197 344.05 218 377.74 205 388 184 346.98 184 262" style="fill: #141e33"/>
          <rect x="145" y="257.02" width="15" height="4.97" style="fill: #16213a"/>
          <rect x="127" y="220" width="51" height="38" rx="9.5" style="fill: #222d4c"/>
        </g>
      </g>
    </g>
    <g id="LikeIcon">
      <g>
        <circle cx="229.06" cy="230.09" r="15.94" style="fill: #7dc4ff"/>
        <g>
          <rect x="221.24" y="228.02" width="4.32" height="9.35" rx="1.82" style="fill: #fff"/>
          <path d="M226.75,227.78l2.4-3.6,1-1v-2.15a1.54,1.54,0,0,1,2.4,0c.34,1.37-.14,3.29-.72,5.27h4.55a1.77,1.77,0,0,1,0,2.64,1.62,1.62,0,0,1,0,2.15c.38,1.13.32,2-.48,2.4.42.92.51,1.71-.24,2.16h-8.87Z" style="fill: #fff"/>
        </g>
      </g>
    </g>
    <g id="HearthIcon">
      <g>
        <circle cx="273" cy="216.24" r="16" style="fill: #db2a58"/>
        <g>
          <path d="M273,211.44a4.63,4.63,0,0,0-4.72-2.59c-2.65.2-4,1.76-4.49,4.22a4.09,4.09,0,0,0-.06,1,5.64,5.64,0,0,0,.74,2.72,22.74,22.74,0,0,0,8.53,8.38Z" style="fill: #fff"/>
          <path d="M273,211.44a4.63,4.63,0,0,1,4.72-2.59c2.64.2,4,1.76,4.48,4.2a3.94,3.94,0,0,1,.07,1,5.56,5.56,0,0,1-.74,2.7,22.74,22.74,0,0,1-8.53,8.38Z" style="fill: #fff"/>
        </g>
      </g>
    </g>
    <g id="ChatIcon">
      <g>
        <circle cx="318" cy="202" r="16" style="fill: #a600b9"/>
        <g>
          <ellipse cx="318" cy="201.64" rx="9.74" ry="8.66" style="fill: #fff"/>
          <polygon points="310.18 211.02 311.62 207.17 315.71 209.58 310.18 211.02" style="fill: #fff"/>
        </g>
      </g>
    </g>
  </g>
</svg>
